<?xml version="1.0" encoding="UTF-8"?>
<svg id="Capa_1" data-name="Capa 1" xmlns="http://www.w3.org/2000/svg" xmlns:xlink="http://www.w3.org/1999/xlink" version="1.1" viewBox="0 0 1920 1080">
  <defs>
    <style>
      .cls-1 {
        fill: url(#linear-gradient);
      }

      .cls-1, .cls-2, .cls-3, .cls-4, .cls-5, .cls-6 {
        stroke-linecap: round;
        stroke-miterlimit: 10;
        stroke-width: 6.17px;
      }

      .cls-1, .cls-3, .cls-4, .cls-5, .cls-6 {
        stroke: #028090;
      }

      .cls-2 {
        fill: url(#linear-gradient-2);
        stroke: #036e7c;
      }

      .cls-7 {
        fill: #8d949a;
        stroke-width: 0px;
      }

      .cls-3 {
        fill: url(#linear-gradient-3);
      }

      .cls-4 {
        fill: url(#linear-gradient-6);
      }

      .cls-5 {
        fill: url(#linear-gradient-4);
      }

      .cls-6 {
        fill: url(#linear-gradient-5);
      }
    </style>
    <linearGradient id="linear-gradient" x1="587.67" y1="186.79" x2="200.76" y2="186.79" gradientUnits="userSpaceOnUse">
      <stop offset="0" stop-color="#a7c0d0"/>
      <stop offset=".55" stop-color="#709fb0"/>
      <stop offset="1" stop-color="#008096"/>
    </linearGradient>
    <linearGradient id="linear-gradient-2" x1="308.56" y1="893.43" x2="713.72" y2="893.43" gradientUnits="userSpaceOnUse">
      <stop offset="0" stop-color="#a4bac7"/>
      <stop offset=".55" stop-color="#6794a4"/>
      <stop offset="1" stop-color="#027084"/>
    </linearGradient>
    <linearGradient id="linear-gradient-3" x1="67.04" y1="744.49" x2="303.02" y2="744.49" xlink:href="#linear-gradient"/>
    <linearGradient id="linear-gradient-4" x1="21.62" y1="417.2" x2="252.87" y2="417.2" xlink:href="#linear-gradient"/>
    <linearGradient id="linear-gradient-5" x1="621.9" y1="337.43" x2="858.34" y2="337.43" xlink:href="#linear-gradient"/>
    <linearGradient id="linear-gradient-6" x1="673.17" y1="663.63" x2="904.04" y2="663.63" xlink:href="#linear-gradient"/>
  </defs>
  <polygon class="cls-1" points="617.66 211.22 212.5 211.22 242.36 162.37 585.91 162.37 617.66 211.22"/>
  <polygon class="cls-2" points="713.72 869 308.56 869 338.42 917.85 681.98 917.85 713.72 869"/>
  <polygon class="cls-3" points="303.02 917.85 93.39 571.13 67.04 621.96 244.79 915.96 303.02 917.85"/>
  <polygon class="cls-5" points="47.66 591.87 252.87 242.53 195.63 243.53 21.62 539.76 47.66 591.87"/>
  <polygon class="cls-6" points="830.4 511.13 621.9 163.73 679.15 163.73 858.34 462.14 830.4 511.13"/>
  <polygon class="cls-4" points="673.17 838.41 876.35 488.85 904.04 540.43 729.56 838.41 673.17 838.41"/>
  <path class="cls-7" d="M187.29,548.14c.84,28.32,20.67,67.7,60.54,66.72,14.97-.38,33.09-4.22,53.63-19.7-3.44,9.07-8.51,24.8-14.74,41.83-16.14,8.59-36.33,9.89-55.36,9.89-50.35,0-91.16-49.33-91.16-110.18s43.79-100.38,94.14-100.38c20.12.33,34.02,1.76,43.35,3.93.18,17.63-.25,26.1-.16,36.17-18.84-11.86-34.52-13.17-46.82-12.27-34.77,2.53-45.12,44.41-43.41,84Z"/>
  <path class="cls-7" d="M457.87,644.96s-39.12,12.5-99.12-105.35c-13.44-28.56-21.84-19.91-21.84-19.91,0,0,.58,77.52.72,100.57,0,8.16,10.55,19.19,10.55,19.19h-41.36s5.12-9.59,5.12-17.75c0-6.13,1.28-103.22,0-153.38-.98-16.17-10.49-27.12-10.49-27.12h49.13l76.69,120.3s8.27,3.53,7.22-7.1c-.67-6.72,2.54-98.82-8.77-112.95h41.91s-9.04,6.17-9,20.3c.04,14.14-.77,183.21-.77,183.21Z"/>
  <path class="cls-7" d="M611.48,577.06c-1.54-37.99-38.48-49.65-38.48-49.65,0,0,26.24-14.49,28.45-38.56,2.22-24.08-21.21-47.64-39.55-47.64h-89.7s7.07,4.1,7.07,11.07v174.43c0,6.1-7.07,11.25-7.07,11.25h93.78c18.51,0,47.04-22.9,45.5-60.9ZM525.72,489.88v-22.43s13.79-2.43,20.27,2.53c9.25,7.07,8.2,12.81,8.2,22.43,0,8.69-4.12,18.9-12.33,23.96-8.21,5.05-16.14,2.42-16.14,2.42v-28.91ZM553.2,610.67c-10.07,6.21-27.48,2.97-27.48,2.97v-69.08s14.7-3.12,23.58,1.5c11.01,5.71,18.01,20.32,18.01,32.12,0,10.67-4.05,26.29-14.11,32.49Z"/>
  <path class="cls-7" d="M701.52,645.34s-39.56-9.5-46.72-30.87c-7.16-21.36-58.07-173.27-58.07-173.27h52.4l37.55,140.65s6.54,16.6,14.84-9.17c5.8-18.01,24.11-79.06,27.07-111.78,1.28-14.07-10.48-19.7-10.48-19.7h43.23l-59.83,204.14Z"/>
  <path class="cls-7" d="M1009.31,318.06c1.82,27.73,24.8,43.74,48.25,43.2,8.8-.21,19.47-3.84,31.55-12.48,0,2.96-1.35,10.28-8,19.99-9.49,4.79-22.04,4.36-33.23,4.36-29.61,0-58.53-27.52-58.53-61.45s30.67-55.99,60.28-55.99c11.84.19,27.19,3.93,32.69,5.15.1,9.82-.16,14.55-.1,20.17-5.38-6.28-11.1-10.2-34.72-12.58-20.46,1.41-39.67,17.98-38.18,49.63Z"/>
  <path class="cls-7" d="M1245.31,477.86c1.82,27.73,24.8,43.74,48.25,43.2,8.8-.21,19.46-3.84,31.54-12.48,0,2.97-1.34,10.29-7.99,19.99-9.49,4.79-22.05,4.36-33.24,4.36-29.61,0-58.53-27.51-58.53-61.45s30.67-55.98,60.29-55.98c11.83.18,27.18,3.93,32.68,5.15.11,9.83-.16,14.56-.1,20.17-5.39-6.28-11.1-10.2-34.72-12.57-20.45,1.4-39.66,17.97-38.18,49.62Z"/>
  <path class="cls-7" d="M1285.53,649.12c1.81,27.74,24.8,43.75,48.25,43.2,8.8-.21,19.46-3.85,31.54-12.48,0,2.97-1.34,10.28-7.99,19.99-9.5,4.78-22.05,4.36-33.24,4.36-29.61,0-58.53-27.51-58.53-61.45s30.67-55.99,60.29-55.99c11.83.18,27.19,3.93,32.68,5.15.11,9.83-.16,14.56-.1,20.17-5.39-6.27-11.1-10.2-34.72-12.58-20.45,1.41-39.67,17.98-38.18,49.63Z"/>
  <path class="cls-7" d="M1087.27,534.29s-12.5,3.25-66.49-74.12c-9.01-16.17-19.82-16.28-19.82-16.28.24,27.53.27,47.07.48,76.44,0,4.62,7.07,10.85,7.07,10.85h-22.57s3.44-5.42,3.44-10.05c0-3.47.86-58.37,0-86.75-.65-9.15-7.04-15.35-7.04-15.35h24.51l66.18,84.61s5.55,2,4.84-4.02c-.45-3.8,1.71-72.45-5.88-80.45h21.82s-6.06,3.49-6.04,11.48c.02,8-.52,103.62-.52,103.62Z"/>
  <path class="cls-7" d="M1613.13,534.29s-12.51,3.25-66.49-74.12c-9.02-16.17-19.82-16.28-19.82-16.28.25,27.53.27,47.07.48,76.44,0,4.62,7.08,10.85,7.08,10.85h-22.57s3.44-5.42,3.44-10.05c0-3.47.86-58.37,0-86.75-.65-9.15-7.03-15.35-7.03-15.35h24.51l66.18,84.61s5.55,2,4.84-4.02c-.45-3.8,1.7-72.45-5.88-80.45h21.82s-6.07,3.49-6.04,11.48c.03,8-.52,103.62-.52,103.62Z"/>
  <path class="cls-7" d="M1254.87,705.98s-12.51,3.23-66.49-74.13c-9.02-16.16-19.83-16.28-19.83-16.28.24,27.52.27,47.07.49,76.43,0,4.62,7.07,10.86,7.07,10.86h-22.56s3.43-5.43,3.43-10.05c0-3.47.86-58.38,0-86.75-.65-9.15-7.03-15.34-7.03-15.34h24.51l66.19,84.61s5.54,1.99,4.83-4.03c-.45-3.79,1.71-72.44-5.88-80.45h21.82s-6.06,3.49-6.04,11.49c.03,8-.51,103.63-.51,103.63Z"/>
  <path class="cls-7" d="M1805,374.21s-12.5,3.24-66.49-74.13c-9.02-16.16-19.83-16.28-19.83-16.28.25,27.53.28,47.07.48,76.44,0,4.62,7.08,10.86,7.08,10.86h-22.57s3.44-5.42,3.44-10.05c0-3.46.85-58.38,0-86.75-.65-9.15-7.04-15.34-7.04-15.34h24.51l66.18,84.61s5.55,2,4.85-4.02c-.45-3.8,1.71-72.46-5.89-80.45h21.82s-6.06,3.48-6.04,11.49c.03,7.99-.52,103.63-.52,103.63Z"/>
  <path class="cls-7" d="M1008.81,666.8c-.89-21.71-21.99-28.37-21.99-28.37,0,0,14.99-8.27,16.25-22.03,1.27-13.76-12.11-27.22-22.59-27.22h-48.99s4.04,2.34,4.04,6.33v99.65c0,3.48-4.04,6.42-4.04,6.42h51.32c10.57,0,26.88-13.09,26-34.78ZM954.75,616.99v-16.4s14.36-1.18,18.81.22c13.82,4.34,13.88,12.13,13.88,17.62,0,4.97-.52,8.9-14.53,14.61-5.1,2.09-18.16,1.54-18.16,1.54v-17.59ZM986.26,687.51c-15.31,6.02-31.5.18-31.5.18v-42.35s17.46-2.9,28.39,2.87c8.21,4.34,13.98,12.49,13.98,19.22,0,6.09-1.04,16.67-10.86,20.09Z"/>
  <path class="cls-7" d="M1231.25,871.59s-17.11-5.44-21.21-17.65c-4.09-12.22-38.74-99.13-38.74-99.13h22.01l27.67,85.36s9.06,9.84,13.82-4.89c3.31-10.31,20.59-50.48,22.29-69.2.73-8.05-6-11.27-6-11.27h24.73l-44.57,116.78Z"/>
  <path class="cls-7" d="M1157.11,256.25c-35.77,0-64.76,26.06-64.76,58.22s28.99,58.23,64.76,58.23,64.77-26.07,64.77-58.23-29.01-58.22-64.77-58.22ZM1156.86,361.17c-28.69,0-43.81-20.91-43.81-46.7s15.12-46.7,43.81-46.7,44.32,20.91,44.32,46.7-15.62,46.7-44.32,46.7Z"/>
  <path class="cls-7" d="M1623.6,256.25c-35.77,0-64.76,26.06-64.76,58.22s28.99,58.23,64.76,58.23,64.76-26.07,64.76-58.23-28.99-58.22-64.76-58.22ZM1623.36,361.17c-28.7,0-43.82-20.91-43.82-46.7s15.12-46.7,43.82-46.7,44.3,20.91,44.3,46.7-15.61,46.7-44.3,46.7Z"/>
  <path class="cls-7" d="M1434.72,417.31c-35.77,0-64.77,26.07-64.77,58.23s29,58.22,64.77,58.22,64.76-26.06,64.76-58.22-28.99-58.23-64.76-58.23ZM1434.48,522.24c-28.69,0-43.83-20.9-43.83-46.7s15.14-46.7,43.83-46.7,44.3,20.91,44.3,46.7-15.62,46.7-44.3,46.7Z"/>
  <path class="cls-7" d="M1552.98,753.07c-35.77,0-64.76,26.07-64.76,58.22s28.99,58.23,64.76,58.23,64.77-26.07,64.77-58.23-29-58.22-64.77-58.22ZM1552.74,858c-28.69,0-43.83-20.91-43.83-46.71s15.13-46.7,43.83-46.7,44.3,20.91,44.3,46.7-15.61,46.71-44.3,46.71Z"/>
  <path class="cls-7" d="M975.94,757h-48.99s4.04,2.33,4.04,6.32v99.66c0,3.48-4.04,6.42-4.04,6.42h51.32c52.08,0,52.08-63.15,52.08-63.15,0,0-2.49-49.24-54.41-49.24ZM994.83,847.61c-19.72,14.7-46.36,7.89-46.36,7.89v-86.91s28.32-8.76,49.78,9.12c9.14,7.72,13.82,22.15,13.42,32.28-.24,6.08-.13,28.9-16.84,37.62Z"/>
  <path class="cls-7" d="M1118.39,850.04c-2.97,2.49-6.31,3.32-7.72,4.06-19.91,6.89-43.57,1.41-43.57,1.41v-42.92c7.33-.72,17.64-.61,27.68,3.36-.04-.23,0-14.83,0-14.83h-27.68v-32.52s19.45-5.73,37.91,1.57c-.03-.23,0-14.83,0-14.83h-59.44s4.04,4.01,4.04,7.99v99.66c0,3.48-4.04,6.42-4.04,6.42h66.14c3.51-1.19,7.42-13.59,6.68-19.36Z"/>
  <path class="cls-7" d="M1795.69,850.04c-2.97,2.49-6.32,3.32-7.72,4.06-19.92,6.89-43.57,1.41-43.57,1.41v-42.92c7.33-.72,17.63-.61,27.67,3.36-.03-.23,0-14.83,0-14.83h-27.67v-32.52s19.45-5.73,37.9,1.57c-.02-.23,0-14.83,0-14.83h-59.43s4.04,4.01,4.04,7.99v99.66c0,3.48-4.04,6.42-4.04,6.42h66.14c3.51-1.19,7.43-13.59,6.68-19.36Z"/>
  <path class="cls-7" d="M1396.23,869.68s-5.93-3.64-14.72-21.24c-13.26-25.05-36.29-93.11-36.29-93.11h-21.86s1.89,6.51-.62,13.93c-9.06,26.88-32.63,85.26-35.83,89.77-7.27,10.13-11.65,10.65-11.65,10.65l30.43-.96s-6.72-3.21-6-11.27c.09-.76,5.73-15.45,12.22-32.4h44.87c4.96,12.43,9.41,23.79,10.7,27.64,3.29,9.86-.4,16.99-.4,16.99h29.15ZM1324.43,812.5c-6.69,0-5.99-4.29-5.99-4.29,0,0,11.46-30.27,12.82-34.5,3.17-4.69,8.76,9.82,8.76,9.82,0,0,4.57,11.21,10.01,24.68,0,0,.69,4.29-5.99,4.29h-19.61Z"/>
  <path class="cls-7" d="M1487.85,702.53s-5.92-3.65-14.72-21.23c-13.25-25.05-36.28-93.11-36.28-93.11h-21.87s1.89,6.51-.62,13.92c-9.07,26.89-32.63,85.26-35.83,89.77-7.27,10.13-11.65,10.64-11.65,10.64l30.43-.95s-6.73-3.22-5.99-11.27c.09-.76,5.72-15.45,12.22-32.4h44.86c4.96,12.43,9.42,23.79,10.7,27.64,3.29,9.87-.4,16.99-.4,16.99h29.15ZM1416.05,645.35c-6.69,0-5.99-4.29-5.99-4.29,0,0,11.46-30.28,12.82-34.5,3.17-4.69,8.76,9.82,8.76,9.82,0,0,4.57,11.21,10,24.68,0,0,.7,4.29-5.99,4.29h-19.6Z"/>
  <path class="cls-7" d="M1742.21,702.53s-5.92-3.65-14.71-21.23c-13.25-25.05-36.28-93.11-36.28-93.11h-21.86s1.88,6.51-.62,13.92c-9.07,26.89-32.64,85.26-35.83,89.77-7.28,10.13-11.66,10.64-11.66,10.64l30.42-.95s-6.71-3.22-5.99-11.27c.09-.76,5.72-15.45,12.23-32.4h44.86c4.96,12.43,9.42,23.79,10.7,27.64,3.29,9.87-.4,16.99-.4,16.99h29.15ZM1670.41,645.35c-6.68,0-5.98-4.29-5.98-4.29,0,0,11.46-30.28,12.81-34.5,3.17-4.69,8.76,9.82,8.76,9.82,0,0,4.57,11.21,10,24.68,0,0,.69,4.29-5.98,4.29h-19.61Z"/>
  <path class="cls-7" d="M1742.21,532.71s-5.92-3.65-14.71-21.24c-13.25-25.05-36.28-93.11-36.28-93.11h-21.86s1.88,6.51-.62,13.93c-9.07,26.89-32.64,85.26-35.83,89.77-7.28,10.13-11.66,10.64-11.66,10.64l30.42-.95s-6.71-3.22-5.99-11.27c.09-.76,5.72-15.45,12.23-32.4h44.86c4.96,12.43,9.42,23.79,10.7,27.64,3.29,9.86-.4,16.99-.4,16.99h29.15ZM1670.41,475.54c-6.68,0-5.98-4.29-5.98-4.29,0,0,11.46-30.28,12.81-34.5,3.17-4.69,8.76,9.82,8.76,9.82,0,0,4.57,11.2,10,24.68,0,0,.69,4.29-5.98,4.29h-19.61Z"/>
  <path class="cls-7" d="M1221.32,532.71s-5.93-3.65-14.73-21.24c-13.24-25.05-36.28-93.11-36.28-93.11h-21.87s1.9,6.51-.61,13.93c-9.07,26.89-32.62,85.26-35.83,89.77-7.28,10.13-11.66,10.64-11.66,10.64l30.44-.95s-6.73-3.22-6-11.27c.09-.76,5.72-15.45,12.23-32.4h44.86c4.96,12.43,9.42,23.79,10.7,27.64,3.28,9.86-.41,16.99-.41,16.99h29.15ZM1149.52,475.54c-6.68,0-5.99-4.29-5.99-4.29,0,0,11.47-30.28,12.82-34.5,3.18-4.69,8.76,9.82,8.76,9.82,0,0,4.57,11.2,10,24.68,0,0,.7,4.29-5.99,4.29h-19.61Z"/>
  <path class="cls-7" d="M1146.06,702.28s-5.92-3.64-14.72-21.23c-13.25-25.05-36.28-93.12-36.28-93.12h-21.87s1.89,6.51-.61,13.93c-9.07,26.88-32.63,85.26-35.83,89.78-7.28,10.13-11.66,10.64-11.66,10.64l30.43-.96s-6.72-3.21-5.99-11.27c.09-.76,5.71-15.44,12.22-32.4h44.86c4.96,12.43,9.42,23.8,10.7,27.65,3.29,9.86-.4,16.99-.4,16.99h29.14ZM1074.27,645.11c-6.69,0-5.99-4.29-5.99-4.29,0,0,11.46-30.28,12.83-34.5,3.17-4.69,8.76,9.82,8.76,9.82,0,0,4.57,11.2,10,24.69,0,0,.69,4.29-5.99,4.29h-19.6Z"/>
  <path class="cls-7" d="M1428.54,853.24c.43-26.04,1.25-76.15,1.25-80.44,0-5.8,1.81-17.48,1.81-17.48h-21.85s1.94,15.79,2.33,35.08c.59,29.07-.27,66.1-.27,68.98,0,4.79-4.14,9.37-4.14,9.37h66.57s5.43-12.33,8.34-19.29c-21.67,11.69-42.61,7.68-54.04,3.78Z"/>
  <path class="cls-7" d="M1779.83,517.87c.43-26.04,1.25-76.15,1.25-80.44,0-5.8,1.81-17.47,1.81-17.47h-21.86s1.93,15.79,2.33,35.08c.6,29.08-.27,66.1-.27,68.98,0,4.78-4.14,9.37-4.14,9.37h66.57s5.43-12.33,8.35-19.29c-21.67,11.69-42.62,7.68-54.04,3.78Z"/>
  <path class="cls-7" d="M1608.48,652.94c.07-20.74.46-52.26.46-54.21,0-4.78,4.14-9.37,4.14-9.37h-26.94s4.14,4.58,4.14,9.37c0,1.95.39,33.47.47,54.21-.07,20.24-.47,37.92-.47,39.88,0,4.78-4.14,9.37-4.14,9.37h26.94s-4.14-4.58-4.14-9.37c0-1.96-.39-19.64-.46-39.88Z"/>
  <path class="cls-7" d="M1543.57,321.05c.06-20.73.45-52.25.45-54.2,0-4.78,4.15-9.37,4.15-9.37h-26.94s4.15,4.58,4.15,9.37c0,1.95.39,33.46.46,54.2-.07,20.25-.46,37.93-.46,39.89,0,4.78-4.15,9.37-4.15,9.37h26.94s-4.15-4.59-4.15-9.37c0-1.96-.39-19.64-.45-39.89Z"/>
  <path class="cls-7" d="M1356.41,483.83c.07-20.73.46-52.25.46-54.2,0-4.78,4.15-9.37,4.15-9.37h-26.95s4.15,4.59,4.15,9.37c0,1.95.39,33.46.46,54.2-.07,20.25-.46,37.93-.46,39.89,0,4.78-4.15,9.37-4.15,9.37h26.95s-4.15-4.58-4.15-9.37c0-1.95-.39-19.64-.46-39.89Z"/>
  <path class="cls-7" d="M1411.83,321.05c.06-20.73.45-52.25.45-54.2,0-4.78,4.15-9.37,4.15-9.37h-26.95s4.15,4.58,4.15,9.37c0,1.95.39,33.46.46,54.2-.07,20.25-.46,37.93-.46,39.89,0,4.78-4.15,9.37-4.15,9.37h26.95s-4.15-4.59-4.15-9.37c0-1.96-.39-19.64-.45-39.89Z"/>
  <path class="cls-7" d="M1853.7,661.96c.01-1.27.02-2.6.02-3.94,0-5.56,1.46-6.92,1.46-6.92l44.45-65.4h-27.21s10.95,5.3,3.02,18.39c-1.27,4.77-30.61,38.6-30.61,38.6,0,0-29.34-33.83-30.61-38.6-7.93-13.09,3.02-18.39,3.02-18.39h-27.2l44.46,65.4s1.44,2.14,1.45,6.92c0,1.35.02,2.67.02,3.94-.07,20.25-.46,37.93-.46,39.88,0,4.78-4.15,9.36-4.15,9.36h26.95s-4.15-4.58-4.15-9.36c0-1.96-.4-19.64-.47-39.88Z"/>
  <path class="cls-7" d="M1853.7,661.96c.01-1.27.02-2.6.02-3.94,0-5.56,1.46-6.92,1.46-6.92l44.45-65.4h-27.21s10.95,5.3,3.02,18.39c-1.27,4.77-30.61,38.6-30.61,38.6,0,0-29.34-33.83-30.61-38.6-7.93-13.09,3.02-18.39,3.02-18.39h-27.2l44.46,65.4s1.44,2.14,1.45,6.92c0,1.35.02,2.67.02,3.94-.07,20.25-.46,37.93-.46,39.88,0,4.78-4.15,9.36-4.15,9.36h26.95s-4.15-4.58-4.15-9.36c0-1.96-.4-19.64-.47-39.88Z"/>
  <path class="cls-7" d="M1485.06,310.93c-12.5-7.1-39.34-6.77-38.74-28.04,0-3.52.18-8.95,6.58-11.96,21.72-10.25,34.49,3.94,43.93,3.87-1.78-.81-1.46-9.96-1.46-14.98-5.16-2.09-13.97-3.57-28.26-3.57-16.16,0-39.75,14.34-39.75,30.48.07,20.97,19.01,26.51,36.32,32.21,9.35,3.09,14.67,6.92,17.61,9.8,4.76,5.49,8.51,11.82,7.37,18.53-1.8,13.4-34.96,22.46-61.08,3.58,0,6.38,1.12,13.4,5.18,18.79,17.45,3.98,24.58,2.76,34.34,3.06,26.16.79,39.74-16.15,39.74-32.32,1.8-20.95-21.78-29.44-21.79-29.46Z"/>
  <path class="cls-7" d="M1860.49,807.73c-12.51-7.1-39.34-6.77-38.73-28.04,0-3.53.18-8.95,6.57-11.98,21.72-10.24,34.49,3.95,43.93,3.88-1.77-.8-1.45-9.96-1.45-14.98-5.15-2.08-13.98-3.57-28.27-3.57-16.16,0-39.75,14.33-39.75,30.5.07,20.96,19.01,26.5,36.32,32.2,9.35,3.1,14.67,6.92,17.61,9.81,4.75,5.49,8.51,11.82,7.36,18.51-1.8,13.42-34.95,22.47-61.07,3.58,0,6.39,1.12,13.4,5.18,18.8,17.45,3.98,24.58,2.76,34.34,3.05,26.17.8,39.74-16.15,39.74-32.31,1.8-20.95-21.78-29.44-21.79-29.46Z"/>
  <path class="cls-7" d="M1378.55,369.9s-3.54-2.8-4.74-10.42c-.4-2.58-13.61-91.37-13.61-94.37,0-4.24,5.55-7.62,5.55-7.62,0,0-26.87-1.51-28.84,3.42-1.97,4.94-12.57,49.8-33.83,71.76-21.27-21.96-31.87-66.82-33.83-71.76-1.97-4.94-28.84-3.42-28.84-3.42,0,0,5.55,3.38,5.55,7.62,0,3-13.21,91.79-13.62,94.37-1.19,7.62-4.73,10.42-4.73,10.42h25.9s-4.49-5.07-4.49-10.73,8.65-68.79,8.65-68.79c0,0,.98-7.33,1.19-10.38.85-1.64,2.29-.59,4.71,1.92,28.14,71.76,39.52,86.57,39.52,86.57,0,0,11.38-14.81,39.51-86.57,2.42-2.51,3.86-3.56,4.71-1.92.22,3.05,1.19,10.38,1.19,10.38,0,0,8.65,63.13,8.65,68.79s-4.49,10.73-4.49,10.73h25.9Z"/>
  <path class="cls-7" d="M1675.99,812.35c14.7-5.62,28.26-15.09,28.26-25.81,0-38.54-35.01-31.21-53.5-31.21h-21.45s4.04,4.01,4.04,7.99v99.66c0,3.48-4.04,6.42-4.04,6.42h25.01s-4.41-2.26-4.41-6.28v-45.37h.13v-9.59s-.09-.04-.13-.06v-42.37c3.7-2.44,8.2-2.32,13.06-2.32,12.66,0,22.94,9.71,22.94,21.68.7,15.81-16.82,24.32-29.47,24.36l4.48,8.1c7.9,12.93,43.6,68.18,65.19,48.23.31-.29-25.63-8.59-50.11-53.43Z"/>
  <path class="cls-7" d="M1546.46,645.28c14.69-5.62,28.26-15.08,28.26-25.8,0-38.55-35.01-31.21-53.5-31.21h-21.44s4.04,4,4.04,7.99v99.65c0,3.48-4.04,6.42-4.04,6.42h25.01s-4.41-2.25-4.41-6.27v-45.36s.09,0,.13,0v-9.59s-.09-.03-.13-.05v-42.39c3.71-2.43,8.2-2.31,13.06-2.31,12.67,0,22.95,9.71,22.95,21.69.7,15.81-16.81,24.32-29.47,24.35l4.47,8.11c7.9,12.93,43.61,68.17,65.2,48.22.32-.29-25.63-8.59-50.11-53.43Z"/>
</svg>