<svg width="112" height="22" viewBox="0 0 112 22" fill="none" xmlns="http://www.w3.org/2000/svg">
<path d="M0.27013 10.927L0.294467 21.8621L2.30627 21.8864L4.31807 21.9027L4.30995 20.5885C4.30184 19.8584 4.30184 18.7146 4.30184 18.0332L4.30995 16.8083L8.12264 14.3665C10.2237 13.0199 11.984 11.9248 12.0327 11.9248C12.0813 11.9248 14.9206 14.1718 18.3439 16.9137L24.574 21.9027L27.7377 21.8864L30.9095 21.8621L23.2923 15.7537C19.0983 12.3872 15.6669 9.61283 15.6669 9.58038C15.6669 9.54793 18.6359 7.62537 22.262 5.30531C25.88 2.99336 29.2303 0.85177 29.7008 0.551622L30.5526 0H26.8535H23.1625L16.5511 4.2264C12.9169 6.55457 8.70671 9.2559 7.18163 10.2294C5.65656 11.2028 4.39107 12.0059 4.36674 12.0059C4.33429 12.0059 4.30995 9.30457 4.30995 6.00295V0H2.28193H0.253906L0.27013 10.927Z" fill="#F1F1EF"/>
<path d="M41.1067 10.9432C36.8398 16.9624 33.3516 21.9108 33.3516 21.9351C33.3516 21.9594 34.4224 21.9838 35.7365 21.9838H38.1296L39.6628 19.8097L41.196 17.6438L51.2874 17.6276L61.3788 17.6032L62.9201 19.7773L64.4696 21.9432L66.887 21.9676C68.8339 21.9838 69.2963 21.9676 69.2638 21.8783C69.2476 21.8215 65.7432 16.8813 61.4924 10.8864L53.7616 3.8147e-06H51.3036H48.8538L41.1067 10.9432ZM54.8892 8.47714C56.828 11.1947 58.4179 13.4499 58.4179 13.4823C58.4179 13.5229 55.2055 13.5472 51.2712 13.5472C46.6716 13.5472 44.1406 13.5229 44.1569 13.4661C44.2218 13.2795 51.2387 3.4882 51.2955 3.50443C51.328 3.52065 52.9423 5.75148 54.8892 8.47714Z" fill="#F1F1EF"/>
<path d="M73.1816 10.9919V21.9838H75.2097H77.2377V10.9919V3.8147e-06H75.2097H73.1816V10.9919Z" fill="#F1F1EF"/>
<path d="M81.3666 0.137905C81.4883 0.365044 81.8939 0.730089 86.4854 4.72124C88.8703 6.79794 91.02 8.70428 91.2553 8.95575C92.1233 9.87242 92.3423 10.8378 91.8961 11.795C91.6447 12.3385 90.6793 13.3768 89.3652 14.5125C88.4404 15.3075 81.6992 21.3916 81.3342 21.7566L81.0908 22L83.8895 21.9594C86.1528 21.9189 86.7612 21.8864 87.0613 21.781C87.4913 21.635 87.8644 21.3348 90.0952 19.3473C93.9323 15.9322 95.3275 14.5531 96.0414 13.4661L96.3497 12.9956L96.5849 13.4093C96.9175 14.0177 97.5989 14.9019 98.1019 15.3805C98.3371 15.6077 99.7162 16.8164 101.168 18.0656C102.62 19.3149 104.17 20.6534 104.616 21.0428C105.062 21.4403 105.541 21.8053 105.687 21.8702C105.898 21.9594 106.538 21.9838 108.85 21.9838H111.746L111.389 21.6106C111.187 21.4078 108.956 19.4366 106.433 17.2301C103.902 15.0317 101.704 13.0767 101.533 12.882C101.047 12.3223 100.811 11.7382 100.819 11.1055C100.836 10.0103 101.306 9.41003 104.048 7.01696C104.592 6.53835 111.341 0.462389 111.714 0.105457C111.819 0.00811195 111.43 -0.00811195 108.915 0.0162239L105.995 0.0405598L105.573 0.283924C105.338 0.413717 104.429 1.16814 103.545 1.9469C99.5783 5.45944 97.5989 7.39012 96.95 8.37168L96.593 8.9233L96.4389 8.6556C95.9765 7.87684 95.4736 7.21165 95.0031 6.73304C94.3541 6.09218 87.759 0.365044 87.4183 0.154129C87.1911 0.00811195 86.9559 0 84.2302 0C81.4559 0 81.2936 0.00811195 81.3666 0.137905Z" fill="#F1F1EF"/>
</svg>
